<svg id="visual" viewBox="0 0 900 600" width="900" height="600" xmlns="http://www.w3.org/2000/svg" xmlns:xlink="http://www.w3.org/1999/xlink" version="1.1"><rect x="0" y="0" width="900" height="600" fill="#FFFFFF"></rect><g transform="translate(914.18050851443 614.7250535226258)"><path d="M257.4 -374.8C315.7 -311.9 332.9 -212.8 366.3 -117.3C399.8 -21.7 449.5 70.2 431.6 144.8C413.6 219.3 327.9 276.3 244.7 326.2C161.4 376.2 80.7 419.1 -0.3 419.5C-81.3 419.9 -162.6 377.8 -237.3 325.1C-311.9 272.3 -379.9 208.9 -422.3 126C-464.7 43.1 -481.6 -59.4 -439 -127.9C-396.5 -196.4 -294.7 -231 -211.6 -285.8C-128.6 -340.6 -64.3 -415.8 17.6 -440.1C99.5 -464.3 199.1 -437.7 257.4 -374.8" fill="#0369a1"></path></g></svg>