<svg id="visual" viewBox="0 0 900 600" width="900" height="600" xmlns="http://www.w3.org/2000/svg" xmlns:xlink="http://www.w3.org/1999/xlink" version="1.1"><rect x="0" y="0" width="900" height="600" fill="#FFFFFF"></rect><defs><linearGradient id="grad1_0" x1="33.3%" y1="0%" x2="100%" y2="100%"><stop offset="20%" stop-color="#0369a1" stop-opacity="1"></stop><stop offset="80%" stop-color="#0369a1" stop-opacity="1"></stop></linearGradient></defs><defs><linearGradient id="grad1_1" x1="33.3%" y1="0%" x2="100%" y2="100%"><stop offset="20%" stop-color="#0369a1" stop-opacity="1"></stop><stop offset="80%" stop-color="#97b1d0" stop-opacity="1"></stop></linearGradient></defs><defs><linearGradient id="grad1_2" x1="33.3%" y1="0%" x2="100%" y2="100%"><stop offset="20%" stop-color="#ffffff" stop-opacity="1"></stop><stop offset="80%" stop-color="#97b1d0" stop-opacity="1"></stop></linearGradient></defs><defs><linearGradient id="grad2_0" x1="0%" y1="0%" x2="66.7%" y2="100%"><stop offset="20%" stop-color="#0369a1" stop-opacity="1"></stop><stop offset="80%" stop-color="#0369a1" stop-opacity="1"></stop></linearGradient></defs><defs><linearGradient id="grad2_1" x1="0%" y1="0%" x2="66.7%" y2="100%"><stop offset="20%" stop-color="#97b1d0" stop-opacity="1"></stop><stop offset="80%" stop-color="#0369a1" stop-opacity="1"></stop></linearGradient></defs><defs><linearGradient id="grad2_2" x1="0%" y1="0%" x2="66.7%" y2="100%"><stop offset="20%" stop-color="#97b1d0" stop-opacity="1"></stop><stop offset="80%" stop-color="#ffffff" stop-opacity="1"></stop></linearGradient></defs><g transform="translate(900, 0)"><path d="M0 216.3C-19.8 217 -39.6 217.7 -56 209C-72.4 200.3 -85.3 182.2 -96 166.3C-106.7 150.3 -115 136.5 -124.5 124.5C-133.9 112.4 -144.4 102.1 -157.6 91C-170.8 79.9 -186.8 68.1 -197 52.8C-207.3 37.5 -211.8 18.8 -216.3 0L0 0Z" fill="#cbd7e7"></path><path d="M0 144.2C-13.2 144.7 -26.4 145.1 -37.3 139.3C-48.2 133.5 -56.9 121.5 -64 110.9C-71.1 100.2 -76.7 91 -83 83C-89.3 74.9 -96.3 68 -105.1 60.7C-113.9 53.3 -124.5 45.4 -131.4 35.2C-138.2 25 -141.2 12.5 -144.2 0L0 0Z" fill="#5f8cb8"></path><path d="M0 72.1C-6.6 72.3 -13.2 72.6 -18.7 69.7C-24.1 66.8 -28.4 60.7 -32 55.4C-35.6 50.1 -38.3 45.5 -41.5 41.5C-44.6 37.5 -48.1 34 -52.5 30.3C-56.9 26.6 -62.3 22.7 -65.7 17.6C-69.1 12.5 -70.6 6.3 -72.1 0L0 0Z" fill="#0369a1"></path></g><g transform="translate(0, 600)"><path d="M0 -216.3C17.2 -204.1 34.5 -191.8 48.1 -179.7C61.8 -167.5 71.8 -155.6 86.5 -149.8C101.2 -144.1 120.5 -144.5 139.3 -139.3C158.1 -134.1 176.3 -123.2 187.3 -108.2C198.4 -93.1 202.1 -73.9 205.7 -55.1C209.4 -36.4 212.8 -18.2 216.3 0L0 0Z" fill="#cbd7e7"></path><path d="M0 -144.2C11.5 -136 23 -127.9 32.1 -119.8C41.2 -111.7 47.9 -103.7 57.7 -99.9C67.5 -96 80.3 -96.3 92.9 -92.9C105.4 -89.4 117.6 -82.2 124.9 -72.1C132.2 -62.1 134.7 -49.2 137.2 -36.8C139.6 -24.3 141.9 -12.1 144.2 0L0 0Z" fill="#5f8cb8"></path><path d="M0 -72.1C5.7 -68 11.5 -63.9 16 -59.9C20.6 -55.8 23.9 -51.9 28.8 -49.9C33.7 -48 40.2 -48.2 46.4 -46.4C52.7 -44.7 58.8 -41.1 62.4 -36.1C66.1 -31 67.4 -24.6 68.6 -18.4C69.8 -12.1 70.9 -6.1 72.1 0L0 0Z" fill="#0369a1"></path></g></svg>